<svg width="1024" height="1024" viewBox="0 0 1024 1024" fill="none" xmlns="http://www.w3.org/2000/svg">
<g clip-path="url(#clip0_2_5)">
<rect width="1024" height="1024" fill="black"/>
<rect x="-6" y="342" width="10" height="340" fill="#D9D9D9"/>
<rect x="12" y="336" width="10" height="352" fill="#D9D9D9"/>
<rect x="30" y="328" width="10" height="368" fill="#D9D9D9"/>
<rect x="48" y="319" width="10" height="386" fill="#D9D9D9"/>
<rect x="66" y="307" width="10" height="410" fill="#D9D9D9"/>
<rect x="84" y="295" width="10" height="434" fill="#D9D9D9"/>
<rect x="102" y="281" width="10" height="462" fill="#D9D9D9"/>
<rect x="120" y="266" width="10" height="492" fill="#D9D9D9"/>
<rect x="138" y="242" width="10" height="540" fill="#D9D9D9"/>
<rect x="156" y="224" width="10" height="576" fill="#D9D9D9"/>
<rect x="174" y="215" width="10" height="594" fill="#D9D9D9"/>
<rect x="192" y="194" width="10" height="636" fill="#D9D9D9"/>
<rect x="210" y="170" width="10" height="684" fill="#D9D9D9"/>
<rect x="228" y="137" width="10" height="750" fill="#D9D9D9"/>
<rect x="246" y="115" width="10" height="794" fill="#D9D9D9"/>
<rect x="264" y="74" width="10" height="876" fill="#D9D9D9"/>
<rect x="282" y="81" width="10" height="862" fill="#D9D9D9"/>
<rect x="300" y="103" width="10" height="818" fill="#D9D9D9"/>
<rect x="318" y="123" width="10" height="778" fill="#D9D9D9"/>
<rect x="336" y="142" width="10" height="740" fill="#D9D9D9"/>
<rect x="354" y="163" width="10" height="698" fill="#D9D9D9"/>
<rect x="372" y="194" width="10" height="636" fill="#D9D9D9"/>
<rect x="390" y="187" width="10" height="650" fill="#D9D9D9"/>
<rect x="408" y="175" width="10" height="674" fill="#D9D9D9"/>
<rect x="426" y="281" width="10" height="462" fill="#D9D9D9"/>
<rect x="444" y="290" width="10" height="444" fill="#D9D9D9"/>
<rect x="462" y="307" width="10" height="410" fill="#D9D9D9"/>
<rect x="480" y="295" width="10" height="434" fill="#D9D9D9"/>
<rect x="498" y="319" width="10" height="386" fill="#D9D9D9"/>
<rect x="516" y="132" width="10" height="760" fill="#D9D9D9"/>
<rect x="534" y="158" width="10" height="708" fill="#D9D9D9"/>
<rect x="552" y="187" width="10" height="650" fill="#D9D9D9"/>
<rect x="570" y="202" width="10" height="620" fill="#D9D9D9"/>
<rect x="588" y="228" width="10" height="568" fill="#D9D9D9"/>
<rect x="606" y="281" width="10" height="462" fill="#D9D9D9"/>
<rect x="624" y="251" width="10" height="522" fill="#D9D9D9"/>
<rect x="642" y="237" width="10" height="550" fill="#D9D9D9"/>
<rect x="660" y="290" width="10" height="444" fill="#D9D9D9"/>
<rect x="678" y="351" width="10" height="322" fill="#D9D9D9"/>
<rect x="696" y="382" width="10" height="260" fill="#D9D9D9"/>
<rect x="714" y="425" width="10" height="174" fill="#D9D9D9"/>
<rect x="732" y="453" width="10" height="118" fill="#D9D9D9"/>
<rect x="750" y="464" width="10" height="96" fill="#D9D9D9"/>
<rect x="768" y="474" width="10" height="76" fill="#D9D9D9"/>
<rect x="786" y="490" width="10" height="44" fill="#D9D9D9"/>
<rect x="804" y="504" width="10" height="16" fill="#D9D9D9"/>
<rect x="822" y="490" width="10" height="44" fill="#D9D9D9"/>
<rect x="840" y="495" width="10" height="34" fill="#D9D9D9"/>
<rect x="858" y="493" width="10" height="38" fill="#D9D9D9"/>
<rect x="876" y="487" width="10" height="50" fill="#D9D9D9"/>
<rect x="894" y="490" width="10" height="44" fill="#D9D9D9"/>
<rect x="912" y="493" width="10" height="38" fill="#D9D9D9"/>
<rect x="930" y="499" width="10" height="26" fill="#D9D9D9"/>
<rect x="948" y="504" width="10" height="16" fill="#D9D9D9"/>
<rect x="966" y="508" width="10" height="8" fill="#D9D9D9"/>
<rect x="984" y="508" width="10" height="8" fill="#D9D9D9"/>
<rect x="1002" y="508" width="10" height="8" fill="#D9D9D9"/>
<rect x="1020" y="508" width="10" height="8" fill="#D9D9D9"/>
</g>
<defs>
<clipPath id="clip0_2_5">
<rect width="1024" height="1024" fill="white"/>
</clipPath>
</defs>
</svg>